<?xml version="1.0" encoding="utf-8"?>
<!-- Generator: Adobe Illustrator 24.0.3, SVG Export Plug-In . SVG Version: 6.00 Build 0)  -->
<svg version="1.1" id="Capa_1" xmlns="http://www.w3.org/2000/svg" xmlns:xlink="http://www.w3.org/1999/xlink" x="0px" y="0px"
	 viewBox="0 0 396 132" style="enable-background:new 0 0 396 132;" xml:space="preserve">
<style type="text/css">
	.st0{display:none;}
	.st1{fill:#FFFFFF;}
</style>
<g id="iZs2Rz_1_" class="st0">
	
		<image style="display:inline;overflow:visible;" width="626" height="626" id="iZs2Rz_2_" xlink:href="552648FEBA6FD5C3.png"  transform="matrix(0.5249 0 0 0.5249 -76 -56)">
	</image>
</g>
<g>
	<polygon class="st1" points="19.9,97.2 19.9,20.1 32.6,20.1 32.6,4 6,4 6,113.3 32.6,113.3 32.6,97.2 	"/>
</g>
<g>
	<rect x="47.4" y="53.3" class="st1" width="14.8" height="14.8"/>
</g>
<g>
	<rect x="77.1" y="53.3" class="st1" width="14.8" height="14.8"/>
</g>
<g>
	<rect x="104.6" y="53.3" class="st1" width="14.8" height="14.8"/>
</g>
<g>
	<polygon class="st1" points="173.6,127.6 161.9,101.8 161.9,4 135.3,4 135.3,20.1 148,20.1 148,97.2 135.3,97.2 135.3,113.3 
		139.7,113.3 	"/>
</g>
<polygon class="st0" points="149.2,88 149.2,88 149.2,117 182.7,117 182.7,117 "/>
<g>
	<g>
		<path class="st1" d="M178.1,50.6l0.9-1.1c2.6,2.6,7.6,4.8,13.5,4.8c8.7,0,12.2-3.3,12.2-8.2c0-12.3-25.2-3.9-25.2-18.2
			c0-4.9,3.9-9.5,13-9.5c4.6,0,9.4,1.5,12.2,3.8l-0.9,1.1c-2.9-2.3-7.2-3.6-11.3-3.6c-8.1,0-11.5,3.6-11.5,8.1
			c0,12.7,25.1,4.3,25.1,18.2c0,5.5-4.5,9.5-13.7,9.5C186.5,55.7,180.8,53.5,178.1,50.6z"/>
	</g>
	<g>
		<path class="st1" d="M247.8,18.7v36.8h-1.4v-9.7c-2.1,6.1-7.3,10-14.8,10c-9.3,0-15.1-5.3-15.1-15.3V18.7h1.4v21.7
			c0,9.1,5,13.9,13.6,13.9c9.2,0,14.9-6.3,14.9-15.6v-20H247.8z"/>
	</g>
	<g>
		<path class="st1" d="M275.9,18.5v1.4h-0.4c-8.8,0-14,6-14,15.8v19.8H260V18.7h1.4v9.5C263.5,22,268.5,18.5,275.9,18.5z"/>
	</g>
	<g>
		<path class="st1" d="M315.9,18.7L299,55.4h-1.4l-16.9-36.8h1.6l16,35.1l16-35.1H315.9z"/>
	</g>
	<g>
		<path class="st1" d="M353.2,37h-32.7c0,10.2,7.3,17.3,17,17.3c4.9,0,9.6-1.8,12.5-5.7l1,1c-3.3,4-8.3,6-13.5,6
			c-10.6,0-18.4-7.8-18.4-18.6c0-10.9,7.3-18.6,17-18.6c9.7,0,17.1,7.5,17.1,18.2V37z M320.4,35.7h31.4c-0.5-9.1-7-15.9-15.7-15.9
			C327.4,19.8,320.9,26.6,320.4,35.7z"/>
	</g>
	<g>
		<path class="st1" d="M392,18.7l-19.6,42.7c-2.8,6-6,8.1-10.4,8.1c-3.2,0-6-1.1-8-3.3l1.1-1.1c2,2.1,4.1,3.1,7,3.1
			c3.6,0,6.3-1.6,8.9-7.2l2.6-5.6l-16.9-36.6h1.6l16,35.1l16-35.1H392z"/>
	</g>
</g>
<g>
	<g>
		<path class="st1" d="M196.1,90.3v6.5h-17.8V69.5h17.5V76h-10v4h9v6.2h-9v4.1H196.1z"/>
	</g>
	<g>
		<path class="st1" d="M223.1,96.8l-4.5-8.4l-4.5,8.4h-8.5l8.2-14.2L206,69.5h8.5l4.1,7.7l4.1-7.7h8.4l-7.7,13.2l8.2,14.1H223.1z"/>
	</g>
	<g>
		<path class="st1" d="M263.7,79.4c0,5.7-4.3,9.9-10.1,9.9h-4.1v7.5H242V69.5h11.6C259.4,69.5,263.7,73.7,263.7,79.4z M256,79.4
			c0-1.9-1.3-3.3-3.3-3.3h-3.2v6.6h3.2C254.7,82.7,256,81.4,256,79.4z"/>
	</g>
	<g>
		<path class="st1" d="M285.2,88.5h-2.7v8.4h-7.5V69.5h11.8c5.9,0,10.2,4,10.2,9.7c0,3.4-1.6,6.1-4.3,7.7l5.4,9.9h-8.4L285.2,88.5z
			 M282.5,82.1h3.4c2.1,0,3.3-1.3,3.3-3c0-1.7-1.2-3-3.3-3h-3.4V82.1z"/>
	</g>
	<g>
		<path class="st1" d="M326.9,90.3v6.5h-17.8V69.5h17.5V76h-10v4h9v6.2h-9v4.1H326.9z"/>
	</g>
	<g>
		<path class="st1" d="M337.7,88h7.8c0,2,1.5,2.9,3.2,2.9c1.6,0,3.1-0.8,3.1-2.3c0-1.7-2.1-2.2-4.7-2.8c-3.9-1-9-2.2-9-8.4
			c0-5.4,4-8.5,10.4-8.5c6.5,0,10.3,3.4,10.3,8.9h-7.5c0-1.7-1.3-2.5-2.8-2.5c-1.3,0-2.6,0.6-2.6,1.9c0,1.6,2.1,2.1,4.6,2.7
			c4,1,9.3,2.4,9.3,8.6c0,6-4.6,9.1-10.9,9.1C342,97.5,337.7,94,337.7,88z"/>
	</g>
	<g>
		<path class="st1" d="M370.1,88h7.8c0,2,1.5,2.9,3.2,2.9c1.6,0,3.1-0.8,3.1-2.3c0-1.7-2.1-2.2-4.7-2.8c-3.9-1-9-2.2-9-8.4
			c0-5.4,4-8.5,10.4-8.5c6.5,0,10.3,3.4,10.3,8.9h-7.5c0-1.7-1.3-2.5-2.8-2.5c-1.3,0-2.6,0.6-2.6,1.9c0,1.6,2.1,2.1,4.6,2.7
			c4,1,9.3,2.4,9.3,8.6c0,6-4.6,9.1-10.9,9.1C374.4,97.5,370.1,94,370.1,88z"/>
	</g>
</g>
</svg>
